<svg width="173" height="170" viewBox="0 0 173 170" fill="none" xmlns="http://www.w3.org/2000/svg">
<g id="head">
<path id="Ellipse 276" d="M85.5413 169.877C124.569 169.877 156.207 138.238 156.207 99.2106C156.207 60.1829 124.569 28.5447 85.5413 28.5447C46.5136 28.5447 14.8754 60.1829 14.8754 99.2106C14.8754 138.238 46.5136 169.877 85.5413 169.877Z" fill="#784E4E"/>
<path id="Path 1461" d="M151.544 38.246C140.979 21.0898 124.441 8.4481 105.114 2.75431L96.4386 9.0851V0.864751C91.797 0.15434 87.0991 -0.119331 82.4064 0.0473377L74.9218 6.81954V0.609975C63.84 1.98706 53.1638 5.64533 43.5662 11.3541C33.9687 17.0628 25.6581 24.6982 19.1585 33.7789C2.90445 57.2111 0.160647 89.8105 16.1477 113.431C20.5358 99.9436 25.8626 87.2888 30.252 73.803C33.7012 74.2732 37.1972 74.2902 40.6508 73.8534L45.9898 61.3948L47.4815 73.3262C64.0312 71.8848 88.5779 68.7188 104.267 65.8184L102.741 56.6648L111.868 64.2708C116.675 63.1646 119.529 62.1605 119.293 61.3936C130.962 80.2048 145.242 92.2192 156.909 111.03C161.34 84.5056 166.441 62.4506 151.544 38.246Z" fill="#2F2E41"/>
<path id="Vector" d="M20.5594 125.549C9.20479 125.549 0 115.597 0 103.32V92.205C0 79.928 9.20473 69.9755 20.5593 69.9755L20.5594 125.549Z" fill="#F50057"/>
<path id="Vector_2" d="M151.783 69.9756C163.138 69.9756 172.342 79.928 172.342 92.205V103.32C172.342 115.597 163.138 125.549 151.783 125.549V69.9756Z" fill="#F50057"/>
<path id="Vector_3" d="M162.556 93.9516H159.294C159.294 49.2216 125.638 12.8309 84.2684 12.8309C42.899 12.8309 9.24237 49.2216 9.24237 93.9516H5.98041C5.98041 47.2767 41.1003 9.30396 84.2684 9.30396C127.437 9.30398 162.556 47.2767 162.556 93.9516Z" fill="#F50057"/>
</g>
</svg>
